<svg width="29" height="22" viewBox="0 0 29 22" fill="none" xmlns="http://www.w3.org/2000/svg">
<path fill-rule="evenodd" clip-rule="evenodd" d="M5.66069 21.4783C4.51834 21.4688 3.44261 21.2159 2.4335 20.7196C1.42449 20.2137 0.613321 19.4936 0 18.5595L1.2761 17.0999C1.84985 17.9173 2.51264 18.54 3.26445 18.9682C4.01626 19.3963 4.84721 19.6104 5.7573 19.6104C6.04047 19.6104 6.30806 19.5922 6.56006 19.5559L5.66069 21.4783ZM9.61529 13.0251V2.73786H2.01802V0.869629H11.7817V8.39431L9.61529 13.0251Z" fill="#F33838"/>
<path d="M7.69238 21.3035L17.189 0.869629H19.3554L28.8519 21.3035H26.5372L17.8122 2.12485H18.7025L9.9775 21.3035H7.69238ZM11.4317 15.8447L12.0846 14.0932H24.163L24.8159 15.8447H11.4317Z" fill="white"/>
</svg>
