<svg width="130" height="78" viewBox="0 0 130 78" fill="none" xmlns="http://www.w3.org/2000/svg">
<path fill-rule="evenodd" clip-rule="evenodd" d="M46.103 46.0713C43.6951 46.051 41.4277 45.5082 39.3007 44.4431C37.1739 43.3572 35.4642 41.8119 34.1714 39.8072L36.8612 36.6748C38.0705 38.4289 39.4675 39.7654 41.0522 40.6843C42.6368 41.6031 44.3883 42.0625 46.3066 42.0625C46.9035 42.0625 47.4675 42.0235 47.9986 41.9455L46.103 46.0713ZM54.4384 27.9298V5.85222H38.425V1.84277H59.0047V17.9916L54.4384 27.9298Z" fill="#D0082C"/>
<path d="M50.386 45.696L70.4028 1.84277H74.9691L94.9859 45.696H90.1068L71.7164 4.53662H73.5929L55.2025 45.696H50.386ZM58.2676 33.981L59.6437 30.2221H85.1026L86.4787 33.981H58.2676Z" fill="#302D3D"/>
<path d="M0.238652 58.6345V57.6682C0.964449 57.6682 1.47122 57.52 1.75896 57.2237C2.0467 56.9231 2.19057 56.427 2.19057 55.7356V53.8868C2.19057 53.2297 2.26358 52.6778 2.4096 52.2312C2.55991 51.7802 2.78753 51.4195 3.09245 51.1489C3.39737 50.8784 3.78389 50.6829 4.25201 50.5627C4.72013 50.4424 5.27199 50.3823 5.9076 50.3823V51.9091C5.40942 51.9091 5.02075 51.9821 4.7416 52.1281C4.46245 52.2741 4.26704 52.5017 4.15538 52.8109C4.04801 53.1159 3.99433 53.5067 3.99433 53.9834V56.3283C3.99433 56.659 3.94494 56.966 3.84616 57.2495C3.74739 57.5286 3.56486 57.7713 3.29859 57.9774C3.03233 58.1836 2.65225 58.3446 2.15836 58.4606C1.66448 58.5765 1.02457 58.6345 0.238652 58.6345ZM5.9076 66.8158C5.27199 66.8158 4.72013 66.7557 4.25201 66.6354C3.78389 66.5152 3.39737 66.3198 3.09245 66.0492C2.78753 65.7787 2.55991 65.4179 2.4096 64.967C2.26358 64.5203 2.19057 63.9685 2.19057 63.3114V61.4561C2.19057 60.7689 2.0467 60.2751 1.75896 59.9744C1.47122 59.6738 0.964449 59.5235 0.238652 59.5235V58.5636C1.02457 58.5636 1.66448 58.6216 2.15836 58.7376C2.65225 58.8492 3.03233 59.0103 3.29859 59.2207C3.56486 59.4269 3.74739 59.6717 3.84616 59.9551C3.94494 60.2343 3.99433 60.5392 3.99433 60.8699V63.2147C3.99433 63.6872 4.04801 64.0758 4.15538 64.3807C4.26704 64.69 4.46245 64.9176 4.7416 65.0636C5.02075 65.2139 5.40942 65.2891 5.9076 65.2891V66.8158ZM0.238652 59.5235V57.6682H2.02308V59.5235H0.238652ZM10.3821 54.1766H12.3082V64.7157C12.3082 65.3771 12.188 65.9354 11.9475 66.3906C11.7113 66.8459 11.3591 67.1916 10.891 67.4278C10.4272 67.664 9.85383 67.7821 9.17098 67.7821C9.10226 67.7821 9.03784 67.7821 8.97772 67.7821C8.9133 67.7821 8.84673 67.78 8.77802 67.7757V66.1201C8.83814 66.1201 8.89182 66.1201 8.93907 66.1201C8.98201 66.1201 9.0314 66.1201 9.08723 66.1201C9.54247 66.1201 9.87101 65.9977 10.0729 65.7529C10.279 65.5124 10.3821 65.1624 10.3821 64.7028V54.1766ZM11.3355 52.6499C11.0005 52.6499 10.7128 52.5382 10.4723 52.3149C10.2361 52.0873 10.1179 51.8167 10.1179 51.5032C10.1179 51.1854 10.2361 50.9149 10.4723 50.6915C10.7128 50.4639 11.0005 50.3501 11.3355 50.3501C11.6705 50.3501 11.9561 50.4639 12.1923 50.6915C12.4328 50.9149 12.553 51.1854 12.553 51.5032C12.553 51.8167 12.4328 52.0873 12.1923 52.3149C11.9561 52.5382 11.6705 52.6499 11.3355 52.6499ZM16.6906 64.2906C16.0636 64.2906 15.4967 64.1746 14.99 63.9427C14.4832 63.7065 14.0816 63.3651 13.7853 62.9184C13.4933 62.4718 13.3473 61.9242 13.3473 61.2757C13.3473 60.7174 13.4546 60.2579 13.6694 59.8971C13.8841 59.5364 14.174 59.2508 14.539 59.0403C14.9041 58.8299 15.3121 58.671 15.763 58.5636C16.2139 58.4563 16.6735 58.3747 17.1416 58.3188C17.7342 58.2501 18.2152 58.1943 18.5846 58.1514C18.9539 58.1041 19.2223 58.029 19.3898 57.9259C19.5573 57.8228 19.6411 57.6553 19.6411 57.4234V57.3783C19.6411 56.8157 19.4822 56.3798 19.1644 56.0706C18.8509 55.7614 18.3827 55.6068 17.76 55.6068C17.1115 55.6068 16.6005 55.7506 16.2268 56.0384C15.8575 56.3218 15.6019 56.6375 15.4602 56.9854L13.65 56.5731C13.8648 55.9718 14.1783 55.4865 14.5906 55.1172C15.0071 54.7435 15.486 54.473 16.0271 54.3055C16.5682 54.1337 17.1373 54.0478 17.7342 54.0478C18.1294 54.0478 18.5481 54.095 18.9904 54.1895C19.4371 54.2797 19.8537 54.4472 20.2402 54.692C20.631 54.9368 20.9509 55.2868 21.2 55.742C21.4491 56.193 21.5737 56.7792 21.5737 57.5007V64.0715H19.6926V62.7187H19.6153C19.4908 62.9678 19.3039 63.2126 19.0548 63.4531C18.8058 63.6936 18.4858 63.8933 18.095 64.0522C17.7042 64.2111 17.2361 64.2906 16.6906 64.2906ZM17.1094 62.7445C17.6419 62.7445 18.0971 62.6393 18.4751 62.4288C18.8573 62.2184 19.1472 61.9435 19.3447 61.6043C19.5466 61.2607 19.6475 60.8935 19.6475 60.5027V59.2272C19.5788 59.2959 19.4457 59.3603 19.2481 59.4204C19.0548 59.4763 18.8337 59.5256 18.5846 59.5686C18.3355 59.6072 18.0928 59.6437 17.8566 59.6781C17.6204 59.7082 17.4229 59.7339 17.264 59.7554C16.8903 59.8026 16.5489 59.8821 16.2397 59.9938C15.9348 60.1054 15.69 60.2665 15.5053 60.4769C15.3249 60.683 15.2348 60.9579 15.2348 61.3015C15.2348 61.7782 15.4108 62.1389 15.763 62.3837C16.1152 62.6242 16.5639 62.7445 17.1094 62.7445ZM31.1612 54.1766L27.573 64.0715H25.5116L21.917 54.1766H23.9848L26.4908 61.7911H26.5938L29.0933 54.1766H31.1612ZM34.4791 64.2906C33.8521 64.2906 33.2852 64.1746 32.7784 63.9427C32.2716 63.7065 31.8701 63.3651 31.5737 62.9184C31.2817 62.4718 31.1357 61.9242 31.1357 61.2757C31.1357 60.7174 31.2431 60.2579 31.4578 59.8971C31.6725 59.5364 31.9624 59.2508 32.3275 59.0403C32.6925 58.8299 33.1005 58.671 33.5514 58.5636C34.0024 58.4563 34.4619 58.3747 34.93 58.3188C35.5227 58.2501 36.0037 58.1943 36.373 58.1514C36.7424 58.1041 37.0108 58.029 37.1783 57.9259C37.3458 57.8228 37.4295 57.6553 37.4295 57.4234V57.3783C37.4295 56.8157 37.2706 56.3798 36.9528 56.0706C36.6393 55.7614 36.1712 55.6068 35.5485 55.6068C34.9 55.6068 34.3889 55.7506 34.0153 56.0384C33.6459 56.3218 33.3904 56.6375 33.2487 56.9854L31.4385 56.5731C31.6532 55.9718 31.9667 55.4865 32.379 55.1172C32.7956 54.7435 33.2744 54.473 33.8156 54.3055C34.3567 54.1337 34.9257 54.0478 35.5227 54.0478C35.9178 54.0478 36.3365 54.095 36.7789 54.1895C37.2255 54.2797 37.6421 54.4472 38.0286 54.692C38.4194 54.9368 38.7394 55.2868 38.9885 55.742C39.2376 56.193 39.3621 56.7792 39.3621 57.5007V64.0715H37.481V62.7187H37.4037C37.2792 62.9678 37.0924 63.2126 36.8433 63.4531C36.5942 63.6936 36.2742 63.8933 35.8834 64.0522C35.4926 64.2111 35.0245 64.2906 34.4791 64.2906ZM34.8978 62.7445C35.4303 62.7445 35.8856 62.6393 36.2635 62.4288C36.6457 62.2184 36.9356 61.9435 37.1332 61.6043C37.335 61.2607 37.436 60.8935 37.436 60.5027V59.2272C37.3672 59.2959 37.2341 59.3603 37.0365 59.4204C36.8433 59.4763 36.6221 59.5256 36.373 59.5686C36.1239 59.6072 35.8813 59.6437 35.6451 59.6781C35.4089 59.7082 35.2113 59.7339 35.0524 59.7554C34.6788 59.8026 34.3374 59.8821 34.0281 59.9938C33.7232 60.1054 33.4784 60.2665 33.2938 60.4769C33.1134 60.683 33.0232 60.9579 33.0232 61.3015C33.0232 61.7782 33.1993 62.1389 33.5514 62.3837C33.9036 62.6242 34.3524 62.7445 34.8978 62.7445ZM46.6692 57.6618V59.3302H40.8199V57.6618H46.6692ZM51.0274 64.2906C50.4004 64.2906 49.8335 64.1746 49.3268 63.9427C48.82 63.7065 48.4184 63.3651 48.1221 62.9184C47.8301 62.4718 47.6841 61.9242 47.6841 61.2757C47.6841 60.7174 47.7914 60.2579 48.0062 59.8971C48.2209 59.5364 48.5108 59.2508 48.8758 59.0403C49.2409 58.8299 49.6489 58.671 50.0998 58.5636C50.5507 58.4563 51.0103 58.3747 51.4784 58.3188C52.071 58.2501 52.552 58.1943 52.9214 58.1514C53.2907 58.1041 53.5591 58.029 53.7266 57.9259C53.8941 57.8228 53.9779 57.6553 53.9779 57.4234V57.3783C53.9779 56.8157 53.819 56.3798 53.5012 56.0706C53.1877 55.7614 52.7195 55.6068 52.0968 55.6068C51.4483 55.6068 50.9373 55.7506 50.5636 56.0384C50.1943 56.3218 49.9387 56.6375 49.797 56.9854L47.9868 56.5731C48.2016 55.9718 48.5151 55.4865 48.9274 55.1172C49.3439 54.7435 49.8228 54.473 50.3639 54.3055C50.905 54.1337 51.4741 54.0478 52.071 54.0478C52.4661 54.0478 52.8849 54.095 53.3272 54.1895C53.7739 54.2797 54.1905 54.4472 54.577 54.692C54.9678 54.9368 55.2877 55.2868 55.5368 55.742C55.7859 56.193 55.9105 56.7792 55.9105 57.5007V64.0715H54.0294V62.7187H53.9521C53.8276 62.9678 53.6407 63.2126 53.3916 63.4531C53.1426 63.6936 52.8226 63.8933 52.4318 64.0522C52.041 64.2111 51.5729 64.2906 51.0274 64.2906ZM51.4462 62.7445C51.9787 62.7445 52.4339 62.6393 52.8119 62.4288C53.1941 62.2184 53.484 61.9435 53.6815 61.6043C53.8834 61.2607 53.9843 60.8935 53.9843 60.5027V59.2272C53.9156 59.2959 53.7825 59.3603 53.5849 59.4204C53.3916 59.4763 53.1705 59.5256 52.9214 59.5686C52.6723 59.6072 52.4296 59.6437 52.1934 59.6781C51.9572 59.7082 51.7597 59.7339 51.6008 59.7554C51.2271 59.8026 50.8857 59.8821 50.5765 59.9938C50.2716 60.1054 50.0268 60.2665 49.8421 60.4769C49.6617 60.683 49.5716 60.9579 49.5716 61.3015C49.5716 61.7782 49.7476 62.1389 50.0998 62.3837C50.452 62.6242 50.9007 62.7445 51.4462 62.7445ZM61.5555 64.2712C60.5978 64.2712 59.7732 64.0544 59.0818 63.6206C58.3946 63.1825 57.8664 62.5791 57.4971 61.8104C57.1277 61.0417 56.9431 60.1612 56.9431 59.1692C56.9431 58.1642 57.132 57.2774 57.5099 56.5086C57.8879 55.7356 58.4204 55.1322 59.1076 54.6984C59.7947 54.2647 60.6042 54.0478 61.5362 54.0478C62.2877 54.0478 62.9577 54.1874 63.5461 54.4665C64.1345 54.7414 64.609 55.1279 64.9698 55.6261C65.3348 56.1243 65.5517 56.7062 65.6204 57.3719H63.7458C63.6427 56.908 63.4065 56.5086 63.0372 56.1737C62.6721 55.8387 62.1825 55.6712 61.5684 55.6712C61.0316 55.6712 60.5613 55.8129 60.1576 56.0964C59.7582 56.3755 59.4468 56.7749 59.2235 57.2946C59.0002 57.8099 58.8885 58.4198 58.8885 59.1241C58.8885 59.8456 58.998 60.4683 59.2171 60.9923C59.4361 61.5162 59.7453 61.9221 60.1447 62.2098C60.5484 62.4975 61.023 62.6414 61.5684 62.6414C61.9334 62.6414 62.2641 62.5748 62.5605 62.4417C62.8611 62.3043 63.1123 62.1089 63.3142 61.8555C63.5203 61.6021 63.6642 61.2972 63.7458 60.9407H65.6204C65.5517 61.5806 65.3434 62.1518 64.9955 62.6543C64.6477 63.1568 64.1817 63.5519 63.5976 63.8396C63.0178 64.1274 62.3371 64.2712 61.5555 64.2712ZM69.4714 64.2906C68.8443 64.2906 68.2774 64.1746 67.7707 63.9427C67.2639 63.7065 66.8624 63.3651 66.566 62.9184C66.274 62.4718 66.128 61.9242 66.128 61.2757C66.128 60.7174 66.2353 60.2579 66.4501 59.8971C66.6648 59.5364 66.9547 59.2508 67.3197 59.0403C67.6848 58.8299 68.0928 58.671 68.5437 58.5636C68.9946 58.4563 69.4542 58.3747 69.9223 58.3188C70.515 58.2501 70.996 58.1943 71.3653 58.1514C71.7346 58.1041 72.0031 58.029 72.1705 57.9259C72.338 57.8228 72.4218 57.6553 72.4218 57.4234V57.3783C72.4218 56.8157 72.2629 56.3798 71.9451 56.0706C71.6316 55.7614 71.1635 55.6068 70.5407 55.6068C69.8922 55.6068 69.3812 55.7506 69.0075 56.0384C68.6382 56.3218 68.3827 56.6375 68.2409 56.9854L66.4307 56.5731C66.6455 55.9718 66.959 55.4865 67.3713 55.1172C67.7879 54.7435 68.2667 54.473 68.8078 54.3055C69.349 54.1337 69.918 54.0478 70.515 54.0478C70.9101 54.0478 71.3288 54.095 71.7711 54.1895C72.2178 54.2797 72.6344 54.4472 73.0209 54.692C73.4117 54.9368 73.7317 55.2868 73.9807 55.742C74.2298 56.193 74.3544 56.7792 74.3544 57.5007V64.0715H72.4733V62.7187H72.396C72.2715 62.9678 72.0847 63.2126 71.8356 63.4531C71.5865 63.6936 71.2665 63.8933 70.8757 64.0522C70.4849 64.2111 70.0168 64.2906 69.4714 64.2906ZM69.8901 62.7445C70.4226 62.7445 70.8779 62.6393 71.2558 62.4288C71.638 62.2184 71.9279 61.9435 72.1255 61.6043C72.3273 61.2607 72.4282 60.8935 72.4282 60.5027V59.2272C72.3595 59.2959 72.2264 59.3603 72.0288 59.4204C71.8356 59.4763 71.6144 59.5256 71.3653 59.5686C71.1162 59.6072 70.8736 59.6437 70.6374 59.6781C70.4011 59.7082 70.2036 59.7339 70.0447 59.7554C69.6711 59.8026 69.3296 59.8821 69.0204 59.9938C68.7155 60.1054 68.4707 60.2665 68.286 60.4769C68.1057 60.683 68.0155 60.9579 68.0155 61.3015C68.0155 61.7782 68.1915 62.1389 68.5437 62.3837C68.8959 62.6242 69.3447 62.7445 69.8901 62.7445ZM79.5356 64.2648C78.7368 64.2648 78.0239 64.0608 77.3969 63.6528C76.7741 63.2405 76.2845 62.6543 75.9281 61.8941C75.5759 61.1297 75.3998 60.2128 75.3998 59.1434C75.3998 58.074 75.5781 57.1593 75.9345 56.3991C76.2953 55.639 76.7892 55.0571 77.4162 54.6534C78.0432 54.2497 78.754 54.0478 79.5485 54.0478C80.1626 54.0478 80.6565 54.1509 81.0301 54.357C81.4081 54.5589 81.7001 54.7951 81.9062 55.0656C82.1167 55.3362 82.2799 55.5746 82.3958 55.7807H82.5118V50.8784H84.4379V64.0715H82.5569V62.5319H82.3958C82.2799 62.7423 82.1124 62.9828 81.8934 63.2534C81.6786 63.524 81.3823 63.7602 81.0044 63.962C80.6264 64.1639 80.1369 64.2648 79.5356 64.2648ZM79.9608 62.6221C80.5148 62.6221 80.9829 62.4761 81.3651 62.184C81.7516 61.8877 82.0437 61.4776 82.2412 60.9536C82.4431 60.4297 82.544 59.8198 82.544 59.1241C82.544 58.4369 82.4452 57.8357 82.2477 57.3203C82.0501 56.805 81.7602 56.4034 81.378 56.1157C80.9958 55.8279 80.5234 55.6841 79.9608 55.6841C79.381 55.6841 78.8978 55.8344 78.5113 56.135C78.1248 56.4356 77.8328 56.8458 77.6352 57.3654C77.442 57.8851 77.3453 58.4713 77.3453 59.1241C77.3453 59.7855 77.4441 60.3803 77.6417 60.9085C77.8392 61.4368 78.1312 61.8555 78.5178 62.1647C78.9086 62.4696 79.3896 62.6221 79.9608 62.6221ZM90.3632 64.2712C89.3883 64.2712 88.5487 64.0629 87.8444 63.6464C87.1444 63.2255 86.6032 62.635 86.221 61.8748C85.8431 61.1104 85.6541 60.2149 85.6541 59.1885C85.6541 58.175 85.8431 57.2817 86.221 56.5086C86.6032 55.7356 87.1358 55.1322 87.8186 54.6984C88.5058 54.2647 89.3089 54.0478 90.2279 54.0478C90.7862 54.0478 91.3274 54.1401 91.8513 54.3248C92.3753 54.5095 92.8455 54.7994 93.2621 55.1945C93.6787 55.5896 94.0072 56.1028 94.2477 56.7341C94.4882 57.3611 94.6085 58.1234 94.6085 59.021V59.7039H86.7428V58.2609H92.721C92.721 57.7541 92.6179 57.3053 92.4118 56.9145C92.2056 56.5194 91.9157 56.208 91.5421 55.9804C91.1728 55.7528 90.739 55.639 90.2408 55.639C89.6997 55.639 89.2273 55.7721 88.8236 56.0384C88.4242 56.3004 88.115 56.6439 87.8959 57.0691C87.6812 57.49 87.5738 57.9474 87.5738 58.4412V59.5686C87.5738 60.23 87.6898 60.7926 87.9217 61.2564C88.1579 61.7202 88.4865 62.0745 88.9073 62.3193C89.3282 62.5598 89.8199 62.6801 90.3825 62.6801C90.7476 62.6801 91.0804 62.6285 91.3811 62.5255C91.6817 62.4181 91.9415 62.2592 92.1605 62.0488C92.3796 61.8383 92.5471 61.5785 92.663 61.2693L94.4861 61.5978C94.3401 62.1346 94.0781 62.6049 93.7002 63.0086C93.3265 63.408 92.8563 63.7194 92.2894 63.9427C91.7268 64.1617 91.0847 64.2712 90.3632 64.2712ZM95.6572 64.0715V54.1766H97.506V55.7871H97.6284C97.8346 55.2417 98.1717 54.8166 98.6398 54.5116C99.1079 54.2024 99.6684 54.0478 100.321 54.0478C100.983 54.0478 101.537 54.2024 101.983 54.5116C102.434 54.8208 102.767 55.246 102.982 55.7871H103.085C103.321 55.2589 103.697 54.838 104.212 54.5245C104.727 54.2067 105.342 54.0478 106.055 54.0478C106.952 54.0478 107.684 54.3291 108.251 54.8917C108.822 55.4543 109.108 56.3025 109.108 57.4363V64.0715H107.182V57.6167C107.182 56.9467 106.999 56.4614 106.634 56.1608C106.269 55.8602 105.833 55.7098 105.327 55.7098C104.7 55.7098 104.212 55.9031 103.864 56.2896C103.516 56.6718 103.342 57.1636 103.342 57.7648V64.0715H101.423V57.4943C101.423 56.9574 101.255 56.5258 100.92 56.1994C100.585 55.873 100.149 55.7098 99.6126 55.7098C99.2475 55.7098 98.9104 55.8065 98.6012 55.9997C98.2962 56.1887 98.0493 56.4528 97.8603 56.7921C97.6757 57.1314 97.5833 57.5243 97.5833 57.971V64.0715H95.6572ZM111.464 67.7821C111.177 67.7821 110.915 67.7585 110.679 67.7113C110.442 67.6683 110.266 67.6211 110.15 67.5695L110.614 65.9912C110.966 66.0857 111.28 66.1265 111.555 66.1136C111.829 66.1008 112.072 65.9977 112.283 65.8044C112.497 65.6112 112.686 65.2955 112.849 64.8575L113.088 64.2004L109.467 54.1766H111.529L114.035 61.8555H114.138L116.644 54.1766H118.712L114.634 65.3921C114.445 65.9075 114.204 66.3434 113.912 66.6999C113.62 67.0606 113.273 67.3312 112.869 67.5116C112.465 67.6919 111.997 67.7821 111.464 67.7821ZM128.074 58.5636V59.5235C127.348 59.5235 126.841 59.6738 126.554 59.9744C126.266 60.2751 126.122 60.7689 126.122 61.4561V63.3114C126.122 63.9685 126.047 64.5203 125.897 64.967C125.751 65.4179 125.525 65.7787 125.22 66.0492C124.915 66.3198 124.529 66.5152 124.061 66.6354C123.593 66.7557 123.041 66.8158 122.405 66.8158V65.2891C122.903 65.2891 123.292 65.2139 123.571 65.0636C123.85 64.9176 124.043 64.69 124.151 64.3807C124.263 64.0758 124.318 63.6872 124.318 63.2147V60.8699C124.318 60.5392 124.368 60.2343 124.467 59.9551C124.565 59.6717 124.748 59.4269 125.014 59.2207C125.28 59.0103 125.66 58.8492 126.154 58.7376C126.648 58.6216 127.288 58.5636 128.074 58.5636ZM122.405 50.3823C123.041 50.3823 123.593 50.4424 124.061 50.5627C124.529 50.6829 124.915 50.8784 125.22 51.1489C125.525 51.4195 125.751 51.7802 125.897 52.2312C126.047 52.6778 126.122 53.2297 126.122 53.8868V55.7356C126.122 56.427 126.266 56.9231 126.554 57.2237C126.841 57.52 127.348 57.6682 128.074 57.6682V58.6345C127.288 58.6345 126.648 58.5765 126.154 58.4606C125.66 58.3446 125.28 58.1836 125.014 57.9774C124.748 57.7713 124.565 57.5286 124.467 57.2495C124.368 56.966 124.318 56.659 124.318 56.3283V53.9834C124.318 53.5067 124.263 53.1159 124.151 52.8109C124.043 52.5017 123.85 52.2741 123.571 52.1281C123.292 51.9821 122.903 51.9091 122.405 51.9091V50.3823ZM128.074 57.6682V59.5235H126.29V57.6682H128.074Z" fill="#302D3D"/>
</svg>
