<svg width="235" height="49" viewBox="0 0 235 49" fill="none" xmlns="http://www.w3.org/2000/svg">
<path fill-rule="evenodd" clip-rule="evenodd" d="M8.40773 40.8131C6.71101 40.799 5.11325 40.4234 3.61443 39.6863C2.11577 38.9347 0.910955 37.8652 0 36.4778L1.89537 34.31C2.74756 35.524 3.73198 36.4489 4.84863 37.0848C5.96529 37.7207 7.19948 38.0387 8.55122 38.0387C8.97182 38.0387 9.36926 38.0117 9.74354 37.9577L8.40773 40.8131ZM14.2814 28.2577V12.9782H2.99734V10.2034H17.4992V21.3796L14.2814 28.2577Z" fill="#F33838"/>
<path d="M11.4258 40.5534L25.5309 10.2034H28.7486L42.8537 40.5534H39.4156L26.4565 12.0677H27.7789L14.8198 40.5534H11.4258ZM16.9797 32.4456L17.9494 29.8442H35.8893L36.8591 32.4456H16.9797Z" fill="white"/>
<path d="M55.3749 24.6157V23.2744C56.3823 23.2744 57.0858 23.0687 57.4852 22.6574C57.8846 22.2401 58.0843 21.5516 58.0843 20.5918V18.0255C58.0843 17.1134 58.1856 16.3474 58.3883 15.7274C58.597 15.1015 58.9129 14.6008 59.3361 14.2252C59.7594 13.8497 60.2959 13.5784 60.9457 13.4115C61.5955 13.2446 62.3615 13.1611 63.2437 13.1611V15.2804C62.5522 15.2804 62.0127 15.3817 61.6253 15.5844C61.2378 15.7871 60.9665 16.103 60.8116 16.5322C60.6625 16.9555 60.588 17.4979 60.588 18.1596V21.4145C60.588 21.8735 60.5195 22.2997 60.3823 22.6932C60.2452 23.0806 59.9919 23.4175 59.6223 23.7036C59.2527 23.9897 58.7251 24.2133 58.0396 24.3742C57.354 24.5352 56.4658 24.6157 55.3749 24.6157ZM63.2437 35.9718C62.3615 35.9718 61.5955 35.8884 60.9457 35.7215C60.2959 35.5545 59.7594 35.2833 59.3361 34.9078C58.9129 34.5322 58.597 34.0314 58.3883 33.4055C58.1856 32.7855 58.0843 32.0195 58.0843 31.1075V28.5322C58.0843 27.5784 57.8846 26.8929 57.4852 26.4756C57.0858 26.0583 56.3823 25.8496 55.3749 25.8496V24.5173C56.4658 24.5173 57.354 24.5978 58.0396 24.7587C58.7251 24.9137 59.2527 25.1373 59.6223 25.4294C59.9919 25.7155 60.2452 26.0553 60.3823 26.4487C60.5195 26.8362 60.588 27.2595 60.588 27.7185V30.9733C60.588 31.6291 60.6625 32.1686 60.8116 32.5918C60.9665 33.021 61.2378 33.337 61.6253 33.5396C62.0127 33.7483 62.5522 33.8526 63.2437 33.8526V35.9718ZM55.3749 25.8496V23.2744H57.8518V25.8496H55.3749ZM69.4546 18.4279H72.1282V33.0568C72.1282 33.9748 71.9613 34.7498 71.6275 35.3817C71.2996 36.0136 70.8108 36.4934 70.161 36.8213C69.5172 37.1492 68.7213 37.3131 67.7735 37.3131C67.6781 37.3131 67.5887 37.3131 67.5053 37.3131C67.4158 37.3131 67.3234 37.3101 67.2281 37.3042V35.0061C67.3115 35.0061 67.386 35.0061 67.4516 35.0061C67.5112 35.0061 67.5798 35.0061 67.6573 35.0061C68.2892 35.0061 68.7452 34.8362 69.0254 34.4964C69.3115 34.1626 69.4546 33.6768 69.4546 33.0389V18.4279ZM70.778 16.3087C70.313 16.3087 69.9136 16.1537 69.5798 15.8437C69.2519 15.5277 69.088 15.1522 69.088 14.717C69.088 14.2759 69.2519 13.9003 69.5798 13.5903C69.9136 13.2744 70.313 13.1164 70.778 13.1164C71.243 13.1164 71.6394 13.2744 71.9672 13.5903C72.3011 13.9003 72.468 14.2759 72.468 14.717C72.468 15.1522 72.3011 15.5277 71.9672 15.8437C71.6394 16.1537 71.243 16.3087 70.778 16.3087ZM78.2113 32.4666C77.3409 32.4666 76.554 32.3057 75.8506 31.9838C75.1472 31.6559 74.5898 31.182 74.1785 30.562C73.7731 29.942 73.5704 29.182 73.5704 28.2818C73.5704 27.5069 73.7195 26.869 74.0175 26.3683C74.3156 25.8675 74.718 25.4711 75.2247 25.179C75.7314 24.8869 76.2977 24.6663 76.9236 24.5173C77.5496 24.3683 78.1874 24.255 78.8372 24.1775C79.6598 24.0821 80.3275 24.0046 80.8402 23.945C81.3528 23.8794 81.7254 23.7751 81.9579 23.6321C82.1904 23.489 82.3066 23.2565 82.3066 22.9346V22.872C82.3066 22.0911 82.0861 21.486 81.6449 21.0568C81.2098 20.6276 80.56 20.413 79.6956 20.413C78.7955 20.413 78.0861 20.6127 77.5674 21.0121C77.0548 21.4055 76.7001 21.8437 76.5034 22.3265L73.9907 21.7543C74.2888 20.9197 74.7239 20.2461 75.2962 19.7334C75.8745 19.2148 76.5391 18.8392 77.2903 18.6067C78.0414 18.3683 78.8312 18.2491 79.6598 18.2491C80.2083 18.2491 80.7895 18.3146 81.4035 18.4458C82.0235 18.571 82.6017 18.8034 83.1382 19.1432C83.6807 19.483 84.1248 19.9689 84.4706 20.6008C84.8163 21.2267 84.9892 22.0404 84.9892 23.0419V32.1626H82.3782V30.2848H82.2709C82.098 30.6306 81.8387 30.9703 81.4929 31.3042C81.1472 31.638 80.7031 31.9152 80.1606 32.1358C79.6181 32.3563 78.9683 32.4666 78.2113 32.4666ZM78.7925 30.3206C79.5317 30.3206 80.1636 30.1745 80.6882 29.8824C81.2187 29.5903 81.6211 29.2088 81.8953 28.7379C82.1755 28.261 82.3156 27.7513 82.3156 27.2088V25.4383C82.2202 25.5337 82.0354 25.6231 81.7612 25.7066C81.4929 25.7841 81.1859 25.8526 80.8402 25.9122C80.4944 25.9659 80.1576 26.0166 79.8297 26.0642C79.5019 26.106 79.2277 26.1417 79.0071 26.1715C78.4885 26.2371 78.0145 26.3474 77.5853 26.5024C77.1621 26.6574 76.8223 26.8809 76.566 27.173C76.3156 27.4592 76.1904 27.8407 76.1904 28.3176C76.1904 28.9793 76.4348 29.48 76.9236 29.8198C77.4125 30.1537 78.0354 30.3206 78.7925 30.3206ZM98.2973 18.4279L93.3167 32.1626H90.4553L85.4657 18.4279H88.336L91.8144 28.9972H91.9575L95.4269 18.4279H98.2973ZM102.903 32.4666C102.032 32.4666 101.245 32.3057 100.542 31.9838C99.8386 31.6559 99.2812 31.182 98.8699 30.562C98.4646 29.942 98.2619 29.182 98.2619 28.2818C98.2619 27.5069 98.4109 26.869 98.709 26.3683C99.007 25.8675 99.4094 25.4711 99.9161 25.179C100.423 24.8869 100.989 24.6663 101.615 24.5173C102.241 24.3683 102.879 24.255 103.529 24.1775C104.351 24.0821 105.019 24.0046 105.532 23.945C106.044 23.8794 106.417 23.7751 106.649 23.6321C106.882 23.489 106.998 23.2565 106.998 22.9346V22.872C106.998 22.0911 106.778 21.486 106.336 21.0568C105.901 20.6276 105.251 20.413 104.387 20.413C103.487 20.413 102.778 20.6127 102.259 21.0121C101.746 21.4055 101.392 21.8437 101.195 22.3265L98.6821 21.7543C98.9802 20.9197 99.4154 20.2461 99.9877 19.7334C100.566 19.2148 101.231 18.8392 101.982 18.6067C102.733 18.3683 103.523 18.2491 104.351 18.2491C104.9 18.2491 105.481 18.3146 106.095 18.4458C106.715 18.571 107.293 18.8034 107.83 19.1432C108.372 19.483 108.816 19.9689 109.162 20.6008C109.508 21.2267 109.681 22.0404 109.681 23.0419V32.1626H107.07V30.2848H106.962C106.789 30.6306 106.53 30.9703 106.184 31.3042C105.839 31.638 105.395 31.9152 104.852 32.1358C104.31 32.3563 103.66 32.4666 102.903 32.4666ZM103.484 30.3206C104.223 30.3206 104.855 30.1745 105.38 29.8824C105.91 29.5903 106.313 29.2088 106.587 28.7379C106.867 28.261 107.007 27.7513 107.007 27.2088V25.4383C106.912 25.5337 106.727 25.6231 106.453 25.7066C106.184 25.7841 105.877 25.8526 105.532 25.9122C105.186 25.9659 104.849 26.0166 104.521 26.0642C104.193 26.106 103.919 26.1417 103.699 26.1715C103.18 26.2371 102.706 26.3474 102.277 26.5024C101.854 26.6574 101.514 26.8809 101.257 27.173C101.007 27.4592 100.882 27.8407 100.882 28.3176C100.882 28.9793 101.126 29.48 101.615 29.8198C102.104 30.1537 102.727 30.3206 103.484 30.3206ZM119.823 23.2654V25.5814H111.704V23.2654H119.823ZM125.873 32.4666C125.002 32.4666 124.216 32.3057 123.512 31.9838C122.809 31.6559 122.251 31.182 121.84 30.562C121.435 29.942 121.232 29.182 121.232 28.2818C121.232 27.5069 121.381 26.869 121.679 26.3683C121.977 25.8675 122.38 25.4711 122.886 25.179C123.393 24.8869 123.959 24.6663 124.585 24.5173C125.211 24.3683 125.849 24.255 126.499 24.1775C127.321 24.0821 127.989 24.0046 128.502 23.945C129.014 23.8794 129.387 23.7751 129.619 23.6321C129.852 23.489 129.968 23.2565 129.968 22.9346V22.872C129.968 22.0911 129.748 21.486 129.307 21.0568C128.871 20.6276 128.222 20.413 127.357 20.413C126.457 20.413 125.748 20.6127 125.229 21.0121C124.716 21.4055 124.362 21.8437 124.165 22.3265L121.652 21.7543C121.95 20.9197 122.386 20.2461 122.958 19.7334C123.536 19.2148 124.201 18.8392 124.952 18.6067C125.703 18.3683 126.493 18.2491 127.321 18.2491C127.87 18.2491 128.451 18.3146 129.065 18.4458C129.685 18.571 130.263 18.8034 130.8 19.1432C131.342 19.483 131.786 19.9689 132.132 20.6008C132.478 21.2267 132.651 22.0404 132.651 23.0419V32.1626H130.04V30.2848H129.932C129.76 30.6306 129.5 30.9703 129.155 31.3042C128.809 31.638 128.365 31.9152 127.822 32.1358C127.28 32.3563 126.63 32.4666 125.873 32.4666ZM126.454 30.3206C127.193 30.3206 127.825 30.1745 128.35 29.8824C128.88 29.5903 129.283 29.2088 129.557 28.7379C129.837 28.261 129.977 27.7513 129.977 27.2088V25.4383C129.882 25.5337 129.697 25.6231 129.423 25.7066C129.155 25.7841 128.847 25.8526 128.502 25.9122C128.156 25.9659 127.819 26.0166 127.491 26.0642C127.163 26.106 126.889 26.1417 126.669 26.1715C126.15 26.2371 125.676 26.3474 125.247 26.5024C124.824 26.6574 124.484 26.8809 124.228 27.173C123.977 27.4592 123.852 27.8407 123.852 28.3176C123.852 28.9793 124.096 29.48 124.585 29.8198C125.074 30.1537 125.697 30.3206 126.454 30.3206ZM140.486 32.4398C139.157 32.4398 138.013 32.1388 137.053 31.5367C136.099 30.9286 135.366 30.0911 134.853 29.024C134.34 27.9569 134.084 26.7349 134.084 25.3578C134.084 23.9629 134.346 22.7319 134.871 21.6648C135.396 20.5918 136.135 19.7543 137.089 19.1522C138.042 18.5501 139.166 18.2491 140.46 18.2491C141.503 18.2491 142.433 18.4428 143.249 18.8303C144.066 19.2118 144.725 19.7483 145.226 20.4398C145.732 21.1313 146.033 21.9391 146.129 22.8631H143.527C143.384 22.2192 143.056 21.6648 142.543 21.1999C142.036 20.7349 141.357 20.5024 140.504 20.5024C139.759 20.5024 139.106 20.6991 138.546 21.0926C137.992 21.48 137.559 22.0344 137.249 22.7558C136.939 23.4711 136.785 24.3176 136.785 25.2952C136.785 26.2967 136.937 27.1611 137.241 27.8884C137.545 28.6157 137.974 29.179 138.528 29.5784C139.089 29.9778 139.747 30.1775 140.504 30.1775C141.011 30.1775 141.47 30.0851 141.881 29.9003C142.299 29.7095 142.647 29.4383 142.928 29.0866C143.214 28.7349 143.413 28.3116 143.527 27.8169H146.129C146.033 28.7051 145.744 29.4979 145.261 30.1954C144.779 30.8929 144.132 31.4413 143.321 31.8407C142.516 32.2401 141.571 32.4398 140.486 32.4398ZM151.474 32.4666C150.604 32.4666 149.817 32.3057 149.113 31.9838C148.41 31.6559 147.853 31.182 147.441 30.562C147.036 29.942 146.833 29.182 146.833 28.2818C146.833 27.5069 146.982 26.869 147.28 26.3683C147.578 25.8675 147.981 25.4711 148.488 25.179C148.994 24.8869 149.561 24.6663 150.186 24.5173C150.812 24.3683 151.45 24.255 152.1 24.1775C152.923 24.0821 153.59 24.0046 154.103 23.945C154.616 23.8794 154.988 23.7751 155.221 23.6321C155.453 23.489 155.569 23.2565 155.569 22.9346V22.872C155.569 22.0911 155.349 21.486 154.908 21.0568C154.473 20.6276 153.823 20.413 152.958 20.413C152.058 20.413 151.349 20.6127 150.83 21.0121C150.318 21.4055 149.963 21.8437 149.766 22.3265L147.254 21.7543C147.552 20.9197 147.987 20.2461 148.559 19.7334C149.137 19.2148 149.802 18.8392 150.553 18.6067C151.304 18.3683 152.094 18.2491 152.923 18.2491C153.471 18.2491 154.052 18.3146 154.666 18.4458C155.286 18.571 155.865 18.8034 156.401 19.1432C156.944 19.483 157.388 19.9689 157.733 20.6008C158.079 21.2267 158.252 22.0404 158.252 23.0419V32.1626H155.641V30.2848H155.534C155.361 30.6306 155.102 30.9703 154.756 31.3042C154.41 31.638 153.966 31.9152 153.423 32.1358C152.881 32.3563 152.231 32.4666 151.474 32.4666ZM152.055 30.3206C152.795 30.3206 153.426 30.1745 153.951 29.8824C154.482 29.5903 154.884 29.2088 155.158 28.7379C155.438 28.261 155.578 27.7513 155.578 27.2088V25.4383C155.483 25.5337 155.298 25.6231 155.024 25.7066C154.756 25.7841 154.449 25.8526 154.103 25.9122C153.757 25.9659 153.42 26.0166 153.093 26.0642C152.765 26.106 152.491 26.1417 152.27 26.1715C151.751 26.2371 151.277 26.3474 150.848 26.5024C150.425 26.6574 150.085 26.8809 149.829 27.173C149.578 27.4592 149.453 27.8407 149.453 28.3176C149.453 28.9793 149.698 29.48 150.186 29.8198C150.675 30.1537 151.298 30.3206 152.055 30.3206ZM165.444 32.4309C164.335 32.4309 163.346 32.1477 162.475 31.5814C161.611 31.0091 160.931 30.1954 160.436 29.1402C159.948 28.0791 159.703 26.8064 159.703 25.3221C159.703 23.8377 159.951 22.568 160.445 21.5128C160.946 20.4577 161.632 19.6499 162.502 19.0896C163.372 18.5292 164.359 18.2491 165.462 18.2491C166.314 18.2491 167 18.3921 167.518 18.6783C168.043 18.9584 168.448 19.2863 168.735 19.6619C169.027 20.0374 169.253 20.3683 169.414 20.6544H169.575V13.8497H172.249V32.1626H169.638V30.0255H169.414C169.253 30.3176 169.021 30.6514 168.717 31.027C168.419 31.4025 168.007 31.7304 167.483 32.0106C166.958 32.2908 166.278 32.4309 165.444 32.4309ZM166.034 30.1507C166.803 30.1507 167.453 29.948 167.983 29.5426C168.52 29.1313 168.925 28.562 169.199 27.8347C169.48 27.1075 169.62 26.261 169.62 25.2952C169.62 24.3414 169.483 23.5069 169.208 22.7915C168.934 22.0762 168.532 21.5188 168.001 21.1194C167.471 20.72 166.815 20.5203 166.034 20.5203C165.229 20.5203 164.559 20.7289 164.022 21.1462C163.486 21.5635 163.08 22.1328 162.806 22.8541C162.538 23.5754 162.404 24.3891 162.404 25.2952C162.404 26.2133 162.541 27.0389 162.815 27.7721C163.089 28.5054 163.495 29.0866 164.031 29.5158C164.574 29.9391 165.241 30.1507 166.034 30.1507ZM180.473 32.4398C179.12 32.4398 177.955 32.1507 176.977 31.5724C176.005 30.9882 175.254 30.1686 174.724 29.1134C174.199 28.0523 173.937 26.8094 173.937 25.3847C173.937 23.9778 174.199 22.7379 174.724 21.6648C175.254 20.5918 175.993 19.7543 176.941 19.1522C177.895 18.5501 179.01 18.2491 180.286 18.2491C181.06 18.2491 181.812 18.3772 182.539 18.6336C183.266 18.8899 183.919 19.2923 184.497 19.8407C185.075 20.3891 185.531 21.1015 185.865 21.9778C186.199 22.8482 186.366 23.9063 186.366 25.1522V26.1H175.448V24.097H183.746C183.746 23.3936 183.603 22.7707 183.317 22.2282C183.031 21.6798 182.628 21.2476 182.11 20.9316C181.597 20.6157 180.995 20.4577 180.303 20.4577C179.552 20.4577 178.897 20.6425 178.336 21.0121C177.782 21.3757 177.353 21.8526 177.049 22.4428C176.751 23.027 176.601 23.6619 176.601 24.3474V25.9122C176.601 26.8303 176.762 27.6112 177.084 28.255C177.412 28.8988 177.868 29.3906 178.452 29.7304C179.037 30.0642 179.719 30.2312 180.5 30.2312C181.007 30.2312 181.469 30.1596 181.886 30.0165C182.303 29.8675 182.664 29.647 182.968 29.3549C183.272 29.0628 183.505 28.7021 183.666 28.2729L186.196 28.7289C185.993 29.4741 185.63 30.1268 185.105 30.6872C184.587 31.2416 183.934 31.6738 183.147 31.9838C182.366 32.2878 181.475 32.4398 180.473 32.4398ZM187.822 32.1626V18.4279H190.388V20.6634H190.558C190.844 19.9063 191.312 19.3161 191.962 18.8929C192.611 18.4637 193.389 18.2491 194.296 18.2491C195.214 18.2491 195.983 18.4637 196.603 18.8929C197.228 19.3221 197.69 19.9122 197.989 20.6634H198.132C198.459 19.9301 198.981 19.3459 199.696 18.9108C200.412 18.4696 201.264 18.2491 202.254 18.2491C203.5 18.2491 204.516 18.6395 205.303 19.4204C206.096 20.2014 206.492 21.3787 206.492 22.9525V32.1626H203.819V23.2028C203.819 22.2729 203.565 21.5993 203.059 21.182C202.552 20.7647 201.947 20.5561 201.243 20.5561C200.373 20.5561 199.696 20.8243 199.214 21.3608C198.731 21.8914 198.489 22.5739 198.489 23.4085V32.1626H195.825V23.033C195.825 22.2878 195.592 21.6887 195.127 21.2356C194.662 20.7826 194.057 20.5561 193.312 20.5561C192.805 20.5561 192.337 20.6902 191.908 20.9584C191.485 21.2207 191.142 21.5874 190.88 22.0583C190.623 22.5292 190.495 23.0747 190.495 23.6947V32.1626H187.822ZM209.763 37.3131C209.364 37.3131 209 37.2803 208.672 37.2148C208.344 37.1551 208.1 37.0896 207.939 37.018L208.583 34.8273C209.072 34.9584 209.507 35.0151 209.888 34.9972C210.27 34.9793 210.607 34.8362 210.899 34.568C211.197 34.2997 211.459 33.8616 211.686 33.2535L212.016 32.3414L206.991 18.4279H209.853L213.331 29.0866H213.474L216.952 18.4279H219.823L214.162 33.9957C213.9 34.711 213.566 35.3161 213.161 35.8109C212.756 36.3116 212.273 36.6872 211.712 36.9376C211.152 37.1879 210.502 37.3131 209.763 37.3131ZM232.818 24.5173V25.8496C231.811 25.8496 231.107 26.0583 230.708 26.4756C230.308 26.8929 230.109 27.5784 230.109 28.5322V31.1075C230.109 32.0195 230.004 32.7855 229.796 33.4055C229.593 34.0314 229.28 34.5322 228.857 34.9078C228.434 35.2833 227.897 35.5545 227.247 35.7215C226.598 35.8884 225.832 35.9718 224.949 35.9718V33.8526C225.641 33.8526 226.18 33.7483 226.568 33.5396C226.955 33.337 227.224 33.021 227.373 32.5918C227.528 32.1686 227.605 31.6291 227.605 30.9733V27.7185C227.605 27.2595 227.674 26.8362 227.811 26.4487C227.948 26.0553 228.201 25.7155 228.571 25.4294C228.94 25.1373 229.468 24.9137 230.153 24.7587C230.839 24.5978 231.727 24.5173 232.818 24.5173ZM224.949 13.1611C225.832 13.1611 226.598 13.2446 227.247 13.4115C227.897 13.5784 228.434 13.8497 228.857 14.2252C229.28 14.6008 229.593 15.1015 229.796 15.7274C230.004 16.3474 230.109 17.1134 230.109 18.0255V20.5918C230.109 21.5516 230.308 22.2401 230.708 22.6574C231.107 23.0687 231.811 23.2744 232.818 23.2744V24.6157C231.727 24.6157 230.839 24.5352 230.153 24.3742C229.468 24.2133 228.94 23.9897 228.571 23.7036C228.201 23.4175 227.948 23.0806 227.811 22.6932C227.674 22.2997 227.605 21.8735 227.605 21.4145V18.1596C227.605 17.4979 227.528 16.9555 227.373 16.5322C227.224 16.103 226.955 15.7871 226.568 15.5844C226.18 15.3817 225.641 15.2804 224.949 15.2804V13.1611ZM232.818 23.2744V25.8496H230.341V23.2744H232.818Z" fill="white"/>
</svg>
