<svg width="15" height="14" viewBox="0 0 15 14" fill="none" xmlns="http://www.w3.org/2000/svg">
<path d="M14.7587 0.148758C14.5648 -0.0353792 14.2157 -0.0558389 13.6339 0.128299C13.2267 0.251057 9.6391 1.68324 6.45873 3.0745C3.60804 4.32255 1.28094 5.40691 1.00945 5.55013C0.69917 5.65243 0.0398265 5.95932 0.00104155 6.4299C-0.0183509 6.73679 0.233751 7.00277 0.69917 7.22783C1.20337 7.4938 3.43351 8.27127 3.89893 8.43495C4.05407 9.02829 5.0043 12.4246 5.06247 12.6292C5.12065 12.9361 5.31458 13.1202 5.41154 13.1816C5.43093 13.1816 5.45032 13.2225 5.48911 13.243C5.52789 13.2839 5.60546 13.3044 5.68303 13.3044C5.77999 13.3044 5.91574 13.243 6.0321 13.1612C6.63326 12.6497 7.66106 11.5039 7.95195 11.1766C9.21246 12.2405 10.6087 13.4067 10.7445 13.5499L10.7639 13.5703C11.0741 13.8363 11.4038 14 11.6947 14C11.7917 14 11.8886 13.9795 11.9856 13.9386C12.3153 13.8159 12.5674 13.4885 12.6449 13.0179C12.6449 12.9975 12.6643 12.9361 12.7031 12.8133C13.2461 10.2968 13.6921 8.06668 14.0412 6.20484C14.3709 4.36346 14.6617 2.58347 14.8169 1.62186C14.8363 1.37634 14.8751 1.19221 14.8945 1.06945C14.9526 0.721631 14.972 0.332896 14.7587 0.148758ZM12.0244 2.99266L10.0657 4.91588C8.70826 6.24576 6.92415 7.96438 5.74121 9.08966C5.74121 9.08966 5.74121 9.08966 5.74121 9.11012L5.72182 9.13058C5.72182 9.13058 5.72182 9.15104 5.70243 9.15104C5.70243 9.1715 5.70243 9.1715 5.68303 9.19196V9.21242C5.68303 9.21242 5.68303 9.21242 5.68303 9.23288C5.60546 10.1945 5.45032 11.8313 5.39215 12.5678C5.39215 12.5678 5.39215 12.5678 5.39215 12.5474C5.33397 12.3428 4.42252 9.0692 4.2286 8.39403L11.9468 2.99266C11.9468 2.9722 11.9856 2.95174 12.005 2.93128C12.0244 2.93128 12.0244 2.91082 12.0438 2.91082C12.0632 2.91082 12.0632 2.91082 12.0825 2.89036C12.0825 2.91082 12.0632 2.95174 12.0244 2.99266Z" fill="#302D3D"/>
</svg>
